<svg version="1.1" id="Layer_1" xmlns="http://www.w3.org/2000/svg" xmlns:xlink="http://www.w3.org/1999/xlink" x="0px" y="0px"
	 width="100%" viewBox="0 0 192 192" enable-background="new 0 0 192 192" xml:space="preserve">
<path fill="#000000" opacity="1.000000" stroke="none" 
	d="
M120.798172,119.762970 
	C125.825394,121.737671 130.575790,119.716537 135.267517,119.857643 
	C139.427505,119.982765 141.508347,120.989639 142.466156,125.074883 
	C142.945511,122.258224 143.503082,119.667114 147.003494,119.716606 
	C151.833359,119.784889 151.285812,123.788765 151.700180,127.221596 
	C155.236588,125.084885 152.597763,122.911148 152.689987,120.919769 
	C153.925674,119.329109 155.794266,120.491508 157.318466,119.969261 
	C158.665741,119.507645 160.140717,119.868645 160.537903,121.454727 
	C160.996490,123.285995 159.687363,123.422272 158.206192,123.725418 
	C155.644974,124.249626 156.977509,127.276993 155.396805,128.715942 
	C152.434021,129.607193 149.252563,129.181030 146.119705,129.369614 
	C141.960419,129.619995 137.975693,129.619949 138.099564,123.753601 
	C135.040100,124.419426 136.989960,127.694122 134.665710,128.614670 
	C132.527039,127.394356 134.505096,124.475601 132.590439,123.055244 
	C129.264297,123.757660 131.034439,126.956772 129.453293,129.410370 
	C123.150932,129.410370 116.387184,129.385635 109.623810,129.425003 
	C107.515305,129.437286 106.584038,128.495438 106.656372,126.409973 
	C106.783142,122.755440 106.073975,119.193527 105.162743,115.830666 
	C106.678650,114.366814 108.061874,114.818611 109.717072,115.260941 
	C109.528488,117.695671 109.255287,119.952209 109.209564,122.213341 
	C109.172668,124.037788 109.155045,126.196960 111.556129,126.546783 
	C113.976448,126.899399 116.377991,126.172623 117.364380,123.749947 
	C118.055611,122.052231 118.035233,120.096703 120.798172,119.762970 
z"/>
<path fill="#000000" opacity="1.000000" stroke="none" 
	d="
M81.675781,76.051483 
	C81.984451,72.857712 83.981255,72.669037 86.081474,72.665215 
	C96.744102,72.645836 107.407219,72.685051 118.069092,72.587006 
	C121.020996,72.559860 122.380295,73.726479 122.357048,76.692116 
	C122.303528,83.522415 122.289635,90.353508 122.332207,97.183830 
	C122.350716,100.153984 120.913574,101.261597 118.043755,101.395424 
	C114.309433,101.569580 110.386230,100.651909 107.078293,102.648384 
	C105.964386,104.743225 108.434013,105.368942 108.235008,107.643250 
	C104.296997,108.750946 100.175957,108.222000 96.241859,107.861191 
	C94.827736,105.546341 98.013504,104.921051 97.118118,102.549637 
	C94.546135,100.198647 90.880386,101.423538 87.637032,101.506798 
	C83.116722,101.622856 81.391815,100.116676 81.496567,95.468445 
	C81.638809,89.156647 81.101112,82.829536 81.675781,76.051483 
M83.403954,79.142036 
	C83.408325,84.298386 83.494347,89.456429 83.387505,94.610474 
	C83.319740,97.879189 84.513649,99.622643 87.987358,99.604576 
	C97.297882,99.556152 106.608948,99.578255 115.919617,99.616409 
	C118.629677,99.627518 119.852974,98.404564 119.820778,95.678185 
	C119.753998,90.023529 119.734283,84.366959 119.806580,78.712601 
	C119.843307,75.840271 118.744232,74.386070 115.723640,74.403343 
	C106.575485,74.455666 97.426666,74.440170 88.278397,74.393944 
	C85.541405,74.380112 83.809212,75.428528 83.403954,79.142036 
z"/>
<path fill="#000000" opacity="1.000000" stroke="none" 
	d="
M88.983643,122.947968 
	C87.478874,129.667542 87.395042,128.983200 79.833046,128.452133 
	C75.830589,128.171066 71.550789,129.634521 67.146454,128.461365 
	C66.147179,126.256989 67.316017,123.262177 64.767868,121.296227 
	C74.293854,118.579109 76.910957,119.113655 78.342949,123.818069 
	C81.711906,118.859146 83.739975,118.615280 88.721046,122.794006 
	C89.000580,122.984230 88.983643,122.947968 88.983643,122.947968 
z"/>
<path fill="#000000" opacity="1.000000" stroke="none" 
	d="
M55.815929,120.822418 
	C60.939999,118.617165 60.939999,118.617165 59.677944,112.519363 
	C63.295639,112.317612 63.263515,112.318115 63.368008,118.985802 
	C63.419006,122.239967 63.093765,125.520889 64.374466,129.118484 
	C60.914753,128.872833 57.530872,130.809891 55.170338,127.760300 
	C53.629063,125.769142 53.086708,123.170601 55.815929,120.822418 
z"/>
<path fill="#000000" opacity="1.000000" stroke="none" 
	d="
M44.532936,114.691116 
	C47.801640,115.295792 51.805710,112.913094 53.753799,117.909126 
	C50.710022,118.477119 47.565067,115.731117 45.941219,118.979607 
	C46.392284,123.247696 53.043766,117.530357 52.239822,123.538506 
	C50.263531,124.874786 46.753632,121.434937 45.629662,125.472366 
	C47.437634,128.247833 51.031830,125.546097 52.808800,128.050827 
	C46.420078,131.503189 42.783283,129.673691 42.656639,123.006409 
	C42.622040,121.184738 42.800735,119.346809 42.053692,117.585304 
	C41.199841,115.571953 42.268410,114.840805 44.532936,114.691116 
z"/>
<path fill="#000000" opacity="1.000000" stroke="none" 
	d="
M89.013145,122.999474 
	C88.924423,117.772568 93.198059,120.731270 95.307327,119.945335 
	C97.253548,119.220154 98.654816,121.163277 98.397545,123.310295 
	C98.161598,125.279343 99.316277,126.735672 99.826294,128.431778 
	C96.807793,128.987442 96.807793,128.987442 94.783569,123.686981 
	C91.081459,123.713463 93.305222,127.516853 91.528625,128.831741 
	C89.735817,127.478516 90.590347,125.064949 89.193008,123.226501 
	C88.983643,122.947968 89.000580,122.984230 89.013145,122.999474 
z"/>
<path fill="#000000" opacity="1.000000" stroke="none" 
	d="
M104.076599,85.211960 
	C102.256393,88.434639 102.363815,92.273743 99.320374,94.635063 
	C98.159149,91.348640 100.614700,84.290604 104.497185,79.515305 
	C106.372353,81.481369 104.743195,83.164200 104.076599,85.211960 
z"/>
<path fill="#000000" opacity="1.000000" stroke="none" 
	d="
M95.896523,91.318542 
	C91.698677,92.557259 89.474243,89.516701 86.413170,87.167183 
	C89.079895,83.882950 92.056091,82.126060 96.159286,81.738617 
	C95.823822,85.253258 91.907387,84.553490 91.047409,87.074005 
	C91.945305,89.236099 94.878914,88.967262 95.896523,91.318542 
z"/>
<path fill="#000000" opacity="1.000000" stroke="none" 
	d="
M110.086456,89.284882 
	C111.287689,88.492722 112.561943,88.237335 112.721344,86.847717 
	C111.772652,84.612068 108.364815,85.129578 107.623993,81.650421 
	C111.738800,82.244308 114.573151,84.111862 117.248688,86.926582 
	C115.017517,90.167030 111.930748,91.206871 108.713203,92.194435 
	C107.993187,90.393272 109.079735,90.029648 110.086456,89.284882 
z"/>
</svg>